<svg version="1.1" xmlns="http://www.w3.org/2000/svg" xmlns:xlink="http://www.w3.org/1999/xlink" preserveAspectRatio="xMidYMid meet" viewBox="270.7128210135728 181.71984638873974 23.916407495115834 20.824013260383055" width="24" height="21"><defs><path d="M286.54 187.54C287.09 187.54 287.53 187.99 287.53 188.53C287.53 191.33 287.53 198.75 287.53 201.56C287.53 202.1 287.09 202.54 286.54 202.54C283.38 202.54 274.87 202.54 271.7 202.54C271.16 202.54 270.71 202.1 270.71 201.56C270.71 198.75 270.71 191.33 270.71 188.53C270.71 187.99 271.16 187.54 271.7 187.54C274.87 187.54 283.38 187.54 286.54 187.54Z" id="g4hdWbmCV"></path><clipPath id="clipa2fQspQZa0"><use xlink:href="#g4hdWbmCV" opacity="1"></use></clipPath><path d="M272.08 193.23C272.63 192.77 273.45 192.84 273.91 193.39C275.18 194.89 278.13 198.42 279.4 199.92C279.86 200.47 279.79 201.29 279.24 201.75C279.04 201.92 279.44 201.59 279.24 201.75C278.69 202.22 277.87 202.14 277.41 201.59C276.14 200.09 273.19 196.56 271.92 195.06C271.46 194.51 271.53 193.69 272.08 193.23C272.28 193.06 271.88 193.39 272.08 193.23Z" id="b3NvOIbFsu"></path><path d="M294.17 182.02C294.71 182.48 294.79 183.3 294.33 183.85C291.18 187.6 282.58 197.85 279.44 201.59C278.98 202.14 278.16 202.22 277.61 201.75C277.41 201.59 277.81 201.92 277.61 201.75C277.06 201.29 276.99 200.47 277.45 199.92C280.59 196.18 289.19 185.93 292.34 182.18C292.8 181.63 293.62 181.56 294.17 182.02C294.36 182.19 293.97 181.86 294.17 182.02Z" id="a2bCwe7Lu1"></path></defs><g><g><use xlink:href="#g4hdWbmCV" opacity="1" fill="#d6e973" fill-opacity="0"></use><g clip-path="url(#clipa2fQspQZa0)"><use xlink:href="#g4hdWbmCV" opacity="1" fill-opacity="0" stroke="#737581" stroke-width="2" stroke-opacity="1"></use></g></g><g><use xlink:href="#b3NvOIbFsu" opacity="1" fill="#737581" fill-opacity="1"></use></g><g><use xlink:href="#a2bCwe7Lu1" opacity="1" fill="#737581" fill-opacity="1"></use><g><use xlink:href="#a2bCwe7Lu1" opacity="1" fill-opacity="0" stroke="#459f17" stroke-width="0" stroke-opacity="1"></use></g></g></g></svg>