<svg width="30px" height="24px" viewBox="0 0 30 24" fill="none" xmlns="http://www.w3.org/2000/svg">
<path d="M24.375 1.5H8.67188C8.54297 1.5 8.4375 1.58437 8.4375 1.6875V3C8.4375 3.10312 8.54297 3.1875 8.67188 3.1875H23.2031V19.3125C23.2031 19.4156 23.3086 19.5 23.4375 19.5H25.0781C25.207 19.5 25.3125 19.4156 25.3125 19.3125V2.25C25.3125 1.83516 24.8936 1.5 24.375 1.5ZM20.625 4.5H5.625C5.10645 4.5 4.6875 4.83516 4.6875 5.25V17.6883C4.6875 17.8875 4.78711 18.0773 4.96289 18.218L10.04 22.2797C10.1045 22.3312 10.1777 22.3734 10.2568 22.4086V22.4531H10.3799C10.4824 22.4836 10.5908 22.5 10.7021 22.5H20.625C21.1436 22.5 21.5625 22.1648 21.5625 21.75V5.25C21.5625 4.83516 21.1436 4.5 20.625 4.5ZM10.2539 20.0672L7.73145 18.0469H10.2539V20.0672ZM19.4531 20.8125H12.1289V17.4844C12.1289 16.9664 11.6045 16.5469 10.957 16.5469H6.79688V6.1875H19.4531V20.8125Z" fill="#000"/>
</svg>
