    <svg
      width="133"
      height="85"
      viewBox="0 0 133 85"
      fill="none"
      xmlns="http://www.w3.org/2000/svg"
    >
      <path
        d="M0.282227 45.899C0.282227 34.8533 9.23653 25.899 20.2822 25.899H112.718C123.763 25.899 132.718 34.8533 132.718 45.899V79.8362C132.718 82.5977 130.479 84.8362 127.718 84.8362H5.28223C2.52081 84.8362 0.282227 82.5977 0.282227 79.8362V45.899Z"
        fill="#FF6E6F"
      />
      <path
        d="M0.282227 67.5017H132.718V74.4355H0.282227V67.5017Z"
        fill="#F89279"
      />
      <path
        d="M0.282227 53.6341H132.718V60.5679H0.282227V53.6341Z"
        fill="#F89279"
      />
      <path
        d="M0.282227 40.4599C0.282227 32.4181 6.8014 25.899 14.8432 25.899H118.157C126.199 25.899 132.718 32.4181 132.718 40.4599H0.282227Z"
        fill="#453748"
      />
      <rect
        x="9.29614"
        y="32.8327"
        width="4.85366"
        height="25.6551"
        rx="2.42683"
        fill="#453748"
      />
      <rect
        x="86.9547"
        y="27.2857"
        width="7.62718"
        height="20.8014"
        rx="3.81359"
        fill="#453748"
      />
      <rect
        x="118.157"
        y="29.3659"
        width="11.7875"
        height="15.9477"
        rx="5.89373"
        fill="#453748"
      />
      <rect
        x="73.0871"
        y="30.0592"
        width="10.4007"
        height="39.5226"
        rx="5.20035"
        fill="#453748"
      />
      <rect
        x="100.822"
        y="27.9791"
        width="13.1742"
        height="15.2544"
        rx="6.58711"
        fill="#453748"
      />
      <rect
        x="50.2056"
        y="30.7526"
        width="8.32056"
        height="13.1742"
        rx="4.16028"
        fill="#453748"
      />
      <rect
        x="64.0732"
        y="32.8327"
        width="4.85366"
        height="17.3345"
        rx="2.42683"
        fill="#453748"
      />
      <rect
        x="34.9512"
        y="34.9129"
        width="6.9338"
        height="32.5889"
        rx="3.4669"
        fill="#453748"
      />
      <rect
        x="24.5505"
        y="30.0592"
        width="2.08014"
        height="23.5749"
        rx="1.04007"
        fill="#453748"
      />
      <ellipse
        cx="17.9634"
        cy="2.87875"
        rx="0.69338"
        ry="1.94146"
        fill="#F2D13B"
      />
      <ellipse
        cx="17.9634"
        cy="2.87875"
        rx="0.69338"
        ry="1.94146"
        fill="url(#paint0_radial)"
      />
      <path
        d="M16.23 5.3749C17.503 4.29642 18.2592 4.25487 19.6969 5.3749V25.8989H16.23V5.3749Z"
        fill="#3C5D62"
      />
      <ellipse
        cx="31.831"
        cy="2.87875"
        rx="0.69338"
        ry="1.94146"
        fill="#F2D13B"
      />
      <ellipse
        cx="31.831"
        cy="2.87875"
        rx="0.69338"
        ry="1.94146"
        fill="url(#paint1_radial)"
      />
      <path
        d="M30.0976 5.3749C31.3706 4.29642 32.1268 4.25487 33.5645 5.3749V25.8989H30.0976V5.3749Z"
        fill="#3C5D62"
      />
      <ellipse
        cx="45.6986"
        cy="2.87875"
        rx="0.69338"
        ry="1.94146"
        fill="#F2D13B"
      />
      <ellipse
        cx="45.6986"
        cy="2.87875"
        rx="0.69338"
        ry="1.94146"
        fill="url(#paint2_radial)"
      />
      <path
        d="M43.9651 5.3749C45.2381 4.29642 45.9943 4.25487 47.432 5.3749V25.8989H43.9651V5.3749Z"
        fill="#3C5D62"
      />
      <ellipse
        cx="59.5662"
        cy="2.87875"
        rx="0.69338"
        ry="1.94146"
        fill="#F2D13B"
      />
      <ellipse
        cx="59.5662"
        cy="2.87875"
        rx="0.69338"
        ry="1.94146"
        fill="url(#paint3_radial)"
      />
      <path
        d="M57.8328 5.3749C59.1058 4.29642 59.8619 4.25487 61.2997 5.3749V25.8989H57.8328V5.3749Z"
        fill="#3C5D62"
      />
      <ellipse
        cx="73.4338"
        cy="2.87875"
        rx="0.69338"
        ry="1.94146"
        fill="#F2D13B"
      />
      <ellipse
        cx="73.4338"
        cy="2.87875"
        rx="0.69338"
        ry="1.94146"
        fill="url(#paint4_radial)"
      />
      <path
        d="M71.7004 5.3749C72.9734 4.29642 73.7296 4.25487 75.1673 5.3749V25.8989H71.7004V5.3749Z"
        fill="#3C5D62"
      />
      <ellipse
        cx="87.3014"
        cy="2.87875"
        rx="0.69338"
        ry="1.94146"
        fill="#F2D13B"
      />
      <ellipse
        cx="87.3014"
        cy="2.87875"
        rx="0.69338"
        ry="1.94146"
        fill="url(#paint5_radial)"
      />
      <path
        d="M85.5679 5.3749C86.8409 4.29642 87.5971 4.25487 89.0348 5.3749V25.8989H85.5679V5.3749Z"
        fill="#3C5D62"
      />
      <ellipse
        cx="101.169"
        cy="2.87875"
        rx="0.69338"
        ry="1.94146"
        fill="#F2D13B"
      />
      <ellipse
        cx="101.169"
        cy="2.87875"
        rx="0.69338"
        ry="1.94146"
        fill="url(#paint6_radial)"
      />
      <path
        d="M99.4355 5.3749C100.709 4.29642 101.465 4.25487 102.902 5.3749V25.8989H99.4355V5.3749Z"
        fill="#3C5D62"
      />
      <ellipse
        cx="115.037"
        cy="2.87875"
        rx="0.69338"
        ry="1.94146"
        fill="#F2D13B"
      />
      <ellipse
        cx="115.037"
        cy="2.87875"
        rx="0.69338"
        ry="1.94146"
        fill="url(#paint7_radial)"
      />
      <path
        d="M113.303 5.3749C114.576 4.29642 115.332 4.25487 116.77 5.3749V25.8989H113.303V5.3749Z"
        fill="#3C5D62"
      />
      <defs>
        <radialGradient
          id="paint0_radial"
          cx="0"
          cy="0"
          r="1"
          gradientUnits="userSpaceOnUse"
          gradientTransform="translate(17.9634 2.87875) rotate(90) scale(1.94146 0.69338)"
        >
          <stop stop-color="#FFFEFA" />
          <stop offset="1" stop-color="white" stop-opacity="0" />
        </radialGradient>
        <radialGradient
          id="paint1_radial"
          cx="0"
          cy="0"
          r="1"
          gradientUnits="userSpaceOnUse"
          gradientTransform="translate(31.831 2.87875) rotate(90) scale(1.94146 0.69338)"
        >
          <stop stop-color="#FFFEFA" />
          <stop offset="1" stop-color="white" stop-opacity="0" />
        </radialGradient>
        <radialGradient
          id="paint2_radial"
          cx="0"
          cy="0"
          r="1"
          gradientUnits="userSpaceOnUse"
          gradientTransform="translate(45.6986 2.87875) rotate(90) scale(1.94146 0.69338)"
        >
          <stop stop-color="#FFFEFA" />
          <stop offset="1" stop-color="white" stop-opacity="0" />
        </radialGradient>
        <radialGradient
          id="paint3_radial"
          cx="0"
          cy="0"
          r="1"
          gradientUnits="userSpaceOnUse"
          gradientTransform="translate(59.5662 2.87875) rotate(90) scale(1.94146 0.69338)"
        >
          <stop stop-color="#FFFEFA" />
          <stop offset="1" stop-color="white" stop-opacity="0" />
        </radialGradient>
        <radialGradient
          id="paint4_radial"
          cx="0"
          cy="0"
          r="1"
          gradientUnits="userSpaceOnUse"
          gradientTransform="translate(73.4338 2.87875) rotate(90) scale(1.94146 0.69338)"
        >
          <stop stop-color="#FFFEFA" />
          <stop offset="1" stop-color="white" stop-opacity="0" />
        </radialGradient>
        <radialGradient
          id="paint5_radial"
          cx="0"
          cy="0"
          r="1"
          gradientUnits="userSpaceOnUse"
          gradientTransform="translate(87.3014 2.87875) rotate(90) scale(1.94146 0.69338)"
        >
          <stop stop-color="#FFFEFA" />
          <stop offset="1" stop-color="white" stop-opacity="0" />
        </radialGradient>
        <radialGradient
          id="paint6_radial"
          cx="0"
          cy="0"
          r="1"
          gradientUnits="userSpaceOnUse"
          gradientTransform="translate(101.169 2.87875) rotate(90) scale(1.94146 0.69338)"
        >
          <stop stop-color="#FFFEFA" />
          <stop offset="1" stop-color="white" stop-opacity="0" />
        </radialGradient>
        <radialGradient
          id="paint7_radial"
          cx="0"
          cy="0"
          r="1"
          gradientUnits="userSpaceOnUse"
          gradientTransform="translate(115.037 2.87875) rotate(90) scale(1.94146 0.69338)"
        >
          <stop stop-color="#FFFEFA" />
          <stop offset="1" stop-color="white" stop-opacity="0" />
        </radialGradient>
      </defs>
    </svg>