<svg width="287" height="287" viewBox="0 0 287 287" fill="none" xmlns="http://www.w3.org/2000/svg">
<circle cx="143.5" cy="143.5" r="143.5" fill="#FBF3CB"/>
<path d="M48 141C48 129.954 56.9543 121 68 121H219C230.046 121 239 129.954 239 141V201C239 203.761 236.761 206 234 206H53C50.2386 206 48 203.761 48 201V141Z" fill="#FF6E6F"/>
<path d="M48 181H239V191H48V181Z" fill="#F89279"/>
<path d="M48 161H239V171H48V161Z" fill="#F89279"/>
<path d="M48 141C48 129.954 56.9543 121 68 121H219C230.046 121 239 129.954 239 141V142H48V141Z" fill="#453748"/>
<rect x="61" y="131" width="7" height="37" rx="3.5" fill="#453748"/>
<rect x="173" y="123" width="11" height="30" rx="5.5" fill="#453748"/>
<rect x="218" y="126" width="17" height="23" rx="8.5" fill="#453748"/>
<rect x="153" y="127" width="15" height="57" rx="7.5" fill="#453748"/>
<rect x="193" y="124" width="19" height="22" rx="9.5" fill="#453748"/>
<rect x="120" y="128" width="12" height="19" rx="6" fill="#453748"/>
<rect x="140" y="131" width="7" height="25" rx="3.5" fill="#453748"/>
<rect x="98" y="134" width="10" height="47" rx="5" fill="#453748"/>
<rect x="83" y="127" width="3" height="34" rx="1.5" fill="#453748"/>
<ellipse cx="73.5" cy="87.8" rx="1" ry="2.8" fill="#F2D13B"/>
<ellipse cx="73.5" cy="87.8" rx="1" ry="2.8" fill="url(#paint0_radial)"/>
<path d="M71 91.4C72.8359 89.8446 73.9265 89.7847 76 91.4V121H71V91.4Z" fill="#3C5D62"/>
<ellipse cx="93.5" cy="87.8" rx="1" ry="2.8" fill="#F2D13B"/>
<ellipse cx="93.5" cy="87.8" rx="1" ry="2.8" fill="url(#paint1_radial)"/>
<path d="M91 91.4C92.8359 89.8446 93.9265 89.7847 96 91.4V121H91V91.4Z" fill="#3C5D62"/>
<ellipse cx="113.5" cy="87.8" rx="1" ry="2.8" fill="#F2D13B"/>
<ellipse cx="113.5" cy="87.8" rx="1" ry="2.8" fill="url(#paint2_radial)"/>
<path d="M111 91.4C112.836 89.8446 113.926 89.7847 116 91.4V121H111V91.4Z" fill="#3C5D62"/>
<ellipse cx="133.5" cy="87.8" rx="1" ry="2.8" fill="#F2D13B"/>
<ellipse cx="133.5" cy="87.8" rx="1" ry="2.8" fill="url(#paint3_radial)"/>
<path d="M131 91.4C132.836 89.8446 133.926 89.7847 136 91.4V121H131V91.4Z" fill="#3C5D62"/>
<ellipse cx="153.5" cy="87.8" rx="1" ry="2.8" fill="#F2D13B"/>
<ellipse cx="153.5" cy="87.8" rx="1" ry="2.8" fill="url(#paint4_radial)"/>
<path d="M151 91.4C152.836 89.8446 153.926 89.7847 156 91.4V121H151V91.4Z" fill="#3C5D62"/>
<ellipse cx="173.5" cy="87.8" rx="1" ry="2.8" fill="#F2D13B"/>
<ellipse cx="173.5" cy="87.8" rx="1" ry="2.8" fill="url(#paint5_radial)"/>
<path d="M171 91.4C172.836 89.8446 173.926 89.7847 176 91.4V121H171V91.4Z" fill="#3C5D62"/>
<ellipse cx="193.5" cy="87.8" rx="1" ry="2.8" fill="#F2D13B"/>
<ellipse cx="193.5" cy="87.8" rx="1" ry="2.8" fill="url(#paint6_radial)"/>
<path d="M191 91.4C192.836 89.8446 193.926 89.7847 196 91.4V121H191V91.4Z" fill="#3C5D62"/>
<ellipse cx="213.5" cy="87.8" rx="1" ry="2.8" fill="#F2D13B"/>
<ellipse cx="213.5" cy="87.8" rx="1" ry="2.8" fill="url(#paint7_radial)"/>
<path d="M211 91.4C212.836 89.8446 213.926 89.7847 216 91.4V121H211V91.4Z" fill="#3C5D62"/>
<defs>
<radialGradient id="paint0_radial" cx="0" cy="0" r="1" gradientUnits="userSpaceOnUse" gradientTransform="translate(73.5 87.8) rotate(90) scale(2.8 1)">
<stop stop-color="#FFFEFA"/>
<stop offset="1" stop-color="white" stop-opacity="0"/>
</radialGradient>
<radialGradient id="paint1_radial" cx="0" cy="0" r="1" gradientUnits="userSpaceOnUse" gradientTransform="translate(93.5 87.8) rotate(90) scale(2.8 1)">
<stop stop-color="#FFFEFA"/>
<stop offset="1" stop-color="white" stop-opacity="0"/>
</radialGradient>
<radialGradient id="paint2_radial" cx="0" cy="0" r="1" gradientUnits="userSpaceOnUse" gradientTransform="translate(113.5 87.8) rotate(90) scale(2.8 1)">
<stop stop-color="#FFFEFA"/>
<stop offset="1" stop-color="white" stop-opacity="0"/>
</radialGradient>
<radialGradient id="paint3_radial" cx="0" cy="0" r="1" gradientUnits="userSpaceOnUse" gradientTransform="translate(133.5 87.8) rotate(90) scale(2.8 1)">
<stop stop-color="#FFFEFA"/>
<stop offset="1" stop-color="white" stop-opacity="0"/>
</radialGradient>
<radialGradient id="paint4_radial" cx="0" cy="0" r="1" gradientUnits="userSpaceOnUse" gradientTransform="translate(153.5 87.8) rotate(90) scale(2.8 1)">
<stop stop-color="#FFFEFA"/>
<stop offset="1" stop-color="white" stop-opacity="0"/>
</radialGradient>
<radialGradient id="paint5_radial" cx="0" cy="0" r="1" gradientUnits="userSpaceOnUse" gradientTransform="translate(173.5 87.8) rotate(90) scale(2.8 1)">
<stop stop-color="#FFFEFA"/>
<stop offset="1" stop-color="white" stop-opacity="0"/>
</radialGradient>
<radialGradient id="paint6_radial" cx="0" cy="0" r="1" gradientUnits="userSpaceOnUse" gradientTransform="translate(193.5 87.8) rotate(90) scale(2.8 1)">
<stop stop-color="#FFFEFA"/>
<stop offset="1" stop-color="white" stop-opacity="0"/>
</radialGradient>
<radialGradient id="paint7_radial" cx="0" cy="0" r="1" gradientUnits="userSpaceOnUse" gradientTransform="translate(213.5 87.8) rotate(90) scale(2.8 1)">
<stop stop-color="#FFFEFA"/>
<stop offset="1" stop-color="white" stop-opacity="0"/>
</radialGradient>
</defs>
</svg>
